/* XPM */
static char *result[] = {
/* columns rows colors chars-per-pixel */
"48 48 150 2 ",
"   c #6E6D6D",
".  c #6C6C6C",
"X  c #636262",
"o  c #606060",
"O  c DimGray",
"+  c gray62",
"@  c #A7A7A7",
"#  c gray65",
"$  c gray61",
"%  c gray36",
"&  c #515151",
"*  c gray33",
"=  c #5F5F5F",
"-  c gray38",
";  c gray66",
":  c gray70",
">  c gray71",
",  c #A2A2A2",
"<  c #8C8B8C",
"1  c #888788",
"2  c #838283",
"3  c gray40",
"4  c #8D8C8D",
"5  c gray69",
"6  c #626262",
"7  c #535353",
"8  c gray64",
"9  c #838383",
"0  c #848384",
"q  c #8E8D8E",
"w  c #B6B6B6",
"e  c #B4B4B4",
"r  c #6C6B6B",
"t  c #6A6969",
"y  c #717171",
"u  c #A0A0A0",
"i  c #9A9A9A",
"p  c #585858",
"a  c gray35",
"s  c gray37",
"d  c #6A6A6A",
"f  c gray42",
"g  c #727272",
"h  c gray63",
"j  c #A9A9A9",
"k  c #B2B2B2",
"l  c #B1B1B1",
"z  c #A4A4A4",
"x  c #A3A2A3",
"c  c #9F9F9F",
"v  c #8B8A8B",
"b  c #646464",
"n  c #646364",
"m  c #7F7E7F",
"M  c #898889",
"N  c #AAAAAA",
"B  c #AEAEAE",
"V  c #9D9C9C",
"C  c #979797",
"Z  c #AFAEAF",
"A  c #908F90",
"S  c #8A898A",
"D  c #828182",
"F  c #7C7B7C",
"G  c #ACACAC",
"H  c #8F8E8F",
"J  c #5A5A5A",
"K  c #565656",
"L  c #656565",
"P  c gray54",
"I  c #787777",
"U  c #747373",
"Y  c #777676",
"T  c #868586",
"R  c #878687",
"E  c #B7B7B7",
"W  c #B5B6B5",
"Q  c #858485",
"!  c #717070",
"~  c #6D6C6C",
"^  c gray67",
"/  c #5A595A",
"(  c #8B8B8B",
")  c #555555",
"_  c #818081",
"`  c #737272",
"'  c #737273",
"]  c #838282",
"[  c #6F6E6E",
"{  c #686868",
"}  c #A5A5A5",
"|  c #909090",
" . c #666566",
".. c #757474",
"X. c gray39",
"o. c #9B9B9B",
"O. c gray60",
"+. c #6B6A6A",
"@. c #888888",
"#. c #5D5D5D",
"$. c #807F80",
"%. c #808080",
"&. c #6D6D6D",
"*. c #656464",
"=. c gray50",
"-. c #868686",
";. c gray34",
":. c gray32",
">. c #706F70",
",. c #6F6F6F",
"<. c #898989",
"1. c #555454",
"2. c #B1B0B1",
"3. c gray57",
"4. c #ACABAC",
"5. c gray43",
"6. c #AFAFAF",
"7. c #989898",
"8. c #AEADAE",
"9. c #706F6F",
"0. c #7E7D7E",
"q. c #929192",
"w. c gray68",
"e. c #767575",
"r. c #898789",
"t. c #878688",
"y. c #797878",
"u. c #767676",
"i. c #6F6E6F",
"p. c #858484",
"a. c #8D8D8D",
"s. c #676767",
"d. c #A7A6A6",
"f. c #676667",
"g. c #747474",
"h. c #7A7979",
"j. c gray44",
"k. c #A8A9A8",
"l. c #A09F9F",
"z. c #ABACAC",
"x. c #ABAAAB",
"c. c #727171",
"v. c #747374",
"b. c #6A696A",
"n. c #9D9D9D",
"m. c #959595",
"M. c #838384",
"N. c gray53",
"B. c #606161",
"V. c white",
/* pixels */
"    . X o O + @ # # @ $ % & * = - - - o O + # ; : > : ; # , < 1 2 3 o 3 2 1 4 5 > : ; # , < 1 1 ",
"    . 6 o O + # # # @ $ % & 7 = - - o o O + # ; : > : ; # 8 < 1 9 3 - 3 0 1 q 5 w e ; @ 8 < 1 1 ",
". . r t O y u ; @ 8 8 i - p a s = - d f g h ; j k : l z x c v 1 2 b = n m 2 M N 5 B h c V v 1 1 ",
"X 6 t C + u l e Z A v S 2 D F a 7 s h G G k : k j ; z H v v 1 1 D J 7 K n L d M q P I U Y T 1 1 ",
"- o O + @ ; e w 5 4 R 1 1 M D p & s N E w W w e ; # , v R 1 1 M D p & * = - L 2 1 Q ! ~ ! Q 1 1 ",
"- o O + # @ Z 5 ^ A v v T Q m / 7 = ; e : 5 5 B z x u q ( v T Q m / 7 ) s = n m 0 _ ` ! ' ] Q Q ",
"- o O + @ 8 A 4 A u 8 V Y ! [ - = { c j } | 4 4 < v q u 8 V Y ! [ - = s ) * K n  .O _ Q ] ' ! ! ",
"- o O + @ 8 v R v 8 @ u ..  r X.o O + @ x ( 1 1 1 1 ( 8 @ u ..  r 6 - = 7 & 7 = o L 0 M Q !     ",
"- - { C + o.v 1 v V u O.g r +.6 o O o.8 c @.Q Q 1 1 v V u O.g r r 3 3 b #.% #.b L O $.0 %.  d +.",
"- - 6 { O &.0 1 T Y ..g *.6 6 - - 3 R < @.U ! U Q 1 T Y ..g *.6 3 =.9 -.O.$ O.-.9 $.O  .b ;.) ) ",
"- - - o o L 0 M Q ! ~ r 6 o o o o L 2 M Q ! ~ ! Q M Q !   r 6 o L 2 1 < 8 @ 8 < 1 2 L o = 7 :.:.",
"= = o 6 6 3 =.0 _ ` ! >.. f f O O . $.0 _ ` ! ` _ 0 _ [ r . f f ,.1 < H 8 # 8 H < R d L n K * * ",
"* * ;.t ~ r 3 L O _ Q <.# ^ j c + C . L O _ Q _ O L L X.6 f , G N 8 , 8 # # # 8 8 c R 9 m n = = ",
"& & 1.+.  . 6 o L 2 1 4 2.w e j @ + O o L 0 M 0  .- - - o f G E e ; # # # # # # @ 8 < M 0  .- - ",
"s s o r   &.d O &.M 4 3.4.5 B z 8 o.d 6 3 =.0 m n = o L L 5.@ 5 6.j ; ; # # # 8 8 c @.Q _ O L 3 ",
"j N , ..~ U 7.+ u 8.5 4.3.4 4 < < 1 9.r r 3 3 n K 7 a 0.0 Q < 4 q.6.e k ; # 8 H < @.U ! ` _ 0 2 ",
"w w w.e.~ ..u @ j e w 5 4 R R 1 1 Q !   r 6 - = * & p D M r.1 t.4 5 w : ; # 8 < 1 Q ! ~ ! Q 1 1 ",
": e ^ y.9.u.7.+ u 8.5 ^ A v v 1 1 Q U ! i.b X - K 7 a 0.0 0 Q p.P B e l z x c @.Q D i.r >.<.q 4 ",
"; ; z M Q D . O &.M a.A u 8 c v 1 1 Q Q D i.r +.- = o L  .s.9.! I h ; z H < @.U ! i.b 6 . d.5 5 ",
"# # x < 1 9 L o L 2 1 ( 8 @ 8 < 1 1 1 M Q !   ~ 6 - - o o 6 r ~ U u @ 8 < 1 Q ! ~ r 6 o f G w w ",
", 8 c v 1 0 s.6 f._ Q @.c 8 c v 1 1 Q Q D i.r r 3  .3 d f . U g.h.O.+ o.1 Q ] ' ! [ X.o d # 5 5 ",
"< < v 1 1 Q 9.r ~ ! ! U @.< v 1 1 Q U ! i.b 6 3 =.2 1 # ^ N h u O.j.O d 9.! ' ] Q _ L o 3 1 q 4 ",
"1 1 1 1 M Q ! ~   ~ ~ ! Q 1 1 1 1 Q !   r 6 o L 2 1 a.2.w e k.@ + O o 6 r   ! Q M 0 3 - 3 2 1 1 ",
"Q Q Q 0 9 D I e.e.....Y 2 Q Q Q Q D i.r r 3 L d M 4 3.4.5 B z 8 o.&.L 3 r r [ _ 0 m n = b %.Q Q ",
"! ! 9.s.L 5.z w.^ h l.i Y ! ! ! ! i.b 6 3 =.2 M N 5 4.3.4 4 < < v 0 0 =.3 6 X.L 3 n K 7 ;.  ! ! ",
"    r 6 = d z.w e ; @ u ..~       r 6 o  .0 1 q 5 w 5 4 R 1 1 1 1 1 M 0  .- - o - = 7 & ) d     ",
". . . f d g.^ e l z 8 $ U     ! ! i.b 6 f._ Q S x.5 ^ 4 1 R 0 2 0 Q Q _ L - 6 L 3 b #.% s d ~ . ",
"X 6 f , G ^ ; ; z H < 1 c.  ! D Q D i.r ~ ! ! v.S q 4 M 1 0 b.L s.9.! [ X.- L =.9 -.O.n.m.O 6 X ",
"- o f G E e ; # x < 1 Q ! ~ ! Q M Q !         ! Q 1 1 1 M M.L o 6 r   r X.- 3 9 1 < 8 @ + O o o ",
"3 L 5.z w.^ z x c @.Q ] ' ! ` _ 0 _ [ r r +.d   %.0 0 Q Q _ f.6 b +.~ +.- = b -.< H 8 @ c g f f ",
"2 9 D I e.y.M < @.U ! ' ] Q _ O L L X.X.- ;.) ;.b 3 s.9.! ! ~ . +.b X - K 7 #.O.8 8 # # @ N ^ ^ ",
"1 M Q ! ~ ! Q 1 Q ! ~ ! Q M 0 L o - - - = 7 & 7 s o 6 r         ~ X - = 7 & % $ @ # # # ; e w w ",
"1 1 Q !   ! D Q D i.r [ _ 0 =.3 6 X.L 3 L = s = { O t r . . . ~ +.- = s a p 6 + ; ; ; ; j 6.5 5 ",
"1 1 Q !     ! ! i.b 6 X.L  .3 r r [ _ 2 1 } N ; c + C t 6 X X X.- K 7 a F D N.w.e : : e 6.q.4 4 ",
"1 1 Q !     ~ ~ r 6 o o - B.6 ~   ! Q 1 a.5 w e j @ + O o o - - = * & p D 1 q 5 w > w w 5 4 R 1 ",
"Q Q ] ' ! c.e.Y ..f O { X.6 b +.r >.<.4 q.6.e l z 8 $ j.O { X.X - K 7 J D 1 4 ^ 5 6.w.w.; < 1 1 ",
"! ! ' ] Q S ; w.^ u + 7.g r +.b 6 . d.5 6.j ; z H v q $ + 7.g r +.- = b 2 1 M 4 q v y.e.y.T 1 1 ",
"    ! Q 1 4 5 w e j @ u ..  r 6 o f ^ w e ; # x < t.< 8 @ u ..  r X - 3 0 M 1 1 1 Q >.~ >.Q 1 1 ",
". r >.<.4 q.6.e l z 8 V Y ! [ X.o f j e l z x c @.0 @.c 8 V Y ! i.b 6 3 =.0 2 2 0 _ ` ! ' ] Q Q ",
"X 6 . d.5 6.j ; z H ( v T Q _ L o O c j z H < @.U ! U @.< v T Q D i.r r 3  .3 3 L O _ Q ] ' ! ! ",
"o o d ^ w e ; # x < 1 1 1 M 0  .o O + @ 8 < 1 Q ! ~ ! Q 1 1 1 M Q !   ~ 6 o o o o L 0 M Q !     ",
"O O g N e l z x c @.Q Q 1 1 0 s.6 t C + o.1 Q ] ' ! U Q 1 1 Q Q D i.r r t O O 3 L O $.0 _ [ r . ",
"+ + c @ ; z H < @.U ! U Q 1 Q 9.r r t O d 9.! ' ] Q Q 1 1 Q U ! i.b 6 t C + o.R 2 $.O L L X.X X ",
"@ @ @ # # x < 1 Q ! ~ ! Q M Q !   r 6 o 6 r   ! Q M 1 1 r.Q !   r 6 o O + @ 8 < 1 2 L o o - - - ",
"+ + + , 8 c R 2 _ [ r i.D Q ] ' ! i.b 6 b +.r i.D Q Q 0 0 _ [ r r 3 L &.u j z H < R d L L X.X X ",
"O O &.N.< R d L L X.6 b i.! ' ] Q D i.r +.b 6 b i.! 9.s. .L X.6 3 =.2 M 8.e l z x c R 2 _ [ r . ",
"o o L 2 1 2 L o - - - 6 r   ! Q M Q !   ~ 6 - 6 r   r 6 - - - -  .0 1 q 5 w : ; # 8 < 1 Q !     ",
"- - 3 2 M 2 3 - - - - X .   ! Q 1 Q !   . X - X .   . X - - - - 3 2 1 4 5 > : ; # , < 1 Q !     "
};
