/* XPM */
static char *result[] = {
/* columns rows colors chars-per-pixel */
"48 48 237 2 ",
"   c #B8945F",
".  c #B7935E",
"X  c #B09056",
"o  c #AF8F55",
"O  c #B9955F",
"+  c #C19C62",
"@  c #C29D62",
"#  c #B4905B",
"$  c #9A7845",
"%  c #967441",
"&  c #B4905C",
"*  c #9A7844",
"=  c #B19057",
"-  c #B6935D",
";  c #B8945E",
":  c #BF9A60",
">  c #C09B60",
",  c #BF9B60",
"<  c #BD995E",
"1  c #BD985E",
"2  c #BE9A5F",
"3  c #BE9A60",
"4  c #C09B61",
"5  c #BF9B61",
"6  c #B5925D",
"7  c #B18F5A",
"8  c #9B7946",
"9  c #977642",
"0  c #B19157",
"q  c #AF8E54",
"w  c #9E7C47",
"e  c #9B7945",
"r  c #9C7B46",
"t  c #A2854E",
"y  c #A38750",
"u  c #A58850",
"i  c #B29158",
"p  c #B8955E",
"a  c #B19156",
"s  c #A58851",
"d  c #A2864F",
"f  c #A1854F",
"g  c #9E834C",
"h  c #9E824C",
"j  c #AC8C52",
"k  c #987743",
"l  c #957340",
"z  c #977542",
"x  c #9D824B",
"c  c #9E844D",
"v  c #A0854E",
"b  c #AD8E54",
"n  c #B08F56",
"m  c #9F844D",
"M  c #AD8D54",
"N  c #9C7A46",
"B  c #997743",
"V  c #9A7945",
"C  c #A1844E",
"Z  c #A48750",
"A  c #B4925C",
"S  c #AE8E55",
"D  c #B6935C",
"F  c #B4915C",
"G  c #A1854E",
"H  c #A3864F",
"J  c #B7945E",
"K  c #B9945F",
"L  c #B09057",
"P  c #B99560",
"I  c #B09055",
"U  c #AE8E54",
"Y  c #A1864E",
"T  c #B08F55",
"R  c #B19056",
"E  c #B5915C",
"W  c #AC8C53",
"Q  c #AD8C54",
"!  c #B18E59",
"~  c #B18E5A",
"^  c #B3905A",
"/  c #B08D59",
"(  c #A88851",
")  c #A68850",
"_  c #A5864F",
"`  c #9A7F4A",
"'  c #987E49",
"]  c #997E49",
"[  c #9B804A",
"{  c #A78850",
"}  c #A98A52",
"|  c #A98951",
" . c #A68750",
".. c #A78851",
"X. c #AD8B58",
"o. c #AE8C59",
"O. c #AF8C59",
"+. c #AD8A57",
"@. c #947342",
"#. c #906F3E",
"$. c #90703F",
"%. c #876A3D",
"&. c #85683C",
"*. c #987644",
"=. c #997744",
"-. c #82663A",
";. c #725932",
":. c #6F5731",
">. c #6E5630",
",. c #6D5630",
"<. c #705831",
"1. c #806438",
"2. c #816539",
"3. c #84683B",
"4. c #705832",
"5. c #735A33",
"6. c #82663B",
"7. c #6F5730",
"8. c #6C542E",
"9. c #6D542E",
"0. c #93713F",
"q. c #806338",
"w. c #7D6136",
"e. c #7D6137",
"r. c #957341",
"t. c #7A5F35",
"y. c #69512D",
"u. c #664F2B",
"i. c #7E6237",
"p. c #7B5F35",
"a. c #886B3D",
"s. c #86693C",
"d. c #85683B",
"f. c #987744",
"g. c #896B3D",
"h. c #84673B",
"j. c #745B34",
"k. c #715932",
"l. c #6E5730",
"z. c #715831",
"x. c #83673B",
"c. c #83663B",
"v. c #705731",
"b. c #806439",
"n. c #715832",
"m. c #B9955D",
"M. c #BA965D",
"N. c #B6935B",
"B. c #9F834D",
"V. c #B9955C",
"C. c #BC985E",
"Z. c #B8945C",
"A. c #B7945C",
"S. c #B49159",
"D. c #9C804B",
"F. c #987D49",
"G. c #9C814B",
"H. c #B28F5A",
"J. c #A5874F",
"K. c #9D814C",
"L. c #AC8B57",
"P. c #BA9560",
"I. c #C39E63",
"U. c #BE9B60",
"Y. c #C39D62",
"T. c #C39E62",
"R. c #A48850",
"E. c #BD995F",
"W. c #A68951",
"Q. c #A68851",
"!. c #BC995E",
"~. c #C09C61",
"^. c #BA975D",
"/. c #A48851",
"(. c #B6925D",
"). c #B5925C",
"_. c #B29157",
"`. c #A3874F",
"'. c #997844",
"]. c #9E824B",
"[. c #A0834C",
"{. c #977643",
"}. c #A1844D",
"|. c #AA8B52",
" X c #AD8C53",
".X c #A98A51",
"XX c #AA8A52",
"oX c #B08E59",
"OX c #A4854E",
"+X c #937341",
"@X c #AB8956",
"#X c #A88951",
"$X c #9F834C",
"%X c #9B804B",
"&X c #967542",
"*X c #6D552F",
"=X c #86693B",
"-X c #957441",
";X c #654F2B",
":X c #68512D",
">X c #745B33",
",X c #9C7945",
"<X c #886A3D",
"1X c #AF8D59",
"2X c #B28F5B",
"3X c #AB8B53",
"4X c #B6935A",
"5X c #BB975E",
"6X c #AE8C58",
"7X c #BA9660",
"8X c #C19C61",
"9X c #A0854D",
"0X c #B2905B",
"qX c #987844",
"wX c #AB8D53",
"eX c #AC8D53",
"rX c #A38650",
"tX c #9D814B",
"yX c #9B7F4B",
"uX c #AC8A57",
"iX c #84673A",
"pX c #B7935D",
"aX c #AB8C53",
"sX c #A0834D",
"dX c #967341",
"fX c #9D804A",
"gX c #9A7744",
"hX c #B08D58",
"jX c #66502C",
"kX c #664F2C",
"lX c #69522D",
"zX c #7B6036",
"xX c #816438",
"cX c #937240",
"vX c #67502C",
"bX c #6A522D",
"nX c white",
/* pixels */
"    . X o X .   O + @ @ @ @ @ @ @ @ @ @ @ @ @ + O   O + @ @ @ @ @ @ @ @ @ @ @ @ @ + O   # $ % % ",
"    . X o X .   O + @ @ @ @ @ @ @ @ @ @ @ @ @ + O   O + @ @ @ @ @ @ @ @ @ @ @ @ @ + O   & * % % ",
"    . = X = - . ; : > , < 1 1 2 3 3 > > 4 + + 4 O   O 4 + + 4 > > > > 4 + + + + + 5 - 6 7 8 9 9 ",
"      . . - = X X 0 0 q w e r t y u X 0 i p O O       O O p i a 0 0 a i p O O O O - s d f g h h ",
"          . X o o o o j k l z x c v b o X .               . X o o o o n .         6 d c m m m m ",
". . .     . = X X X X M N B V C d Z b o n A 6 6 6 6 6 6 6 A S b b o o X - . .     6 s d f g h h ",
"X X = .     . . . . . D M j M F 6 A n o b Z d d d d d d d d G G H b o o X X = .     6 6 7 8 9 9 ",
"o o X J K   K K       J X o L ; P ; = I U Y m m m m m m m m m m Y b T o o o R ; O O O P E $ % % ",
"W W Q ! ~ ~ ~ ~ ~ # & ^ Q j Q ! ~ / ( ) _ ` ' ] [ [ [ [ [ [ ] ' ` { } | {  ...X.o.O.~ ~ +.@.#.$.",
"B B z %.&.&.&.&.%.*.$ * =.B z %.&.-.;.:.:.>.,.<.1.-.-.-.-.1.<.,.<.2.3.2.;.:.<.4.4.5.6.&.-.7.8.9.",
"% % 0.q.w.w.e.w.q.0.% r.r.% 0.q.w.t.y.u.u.u.u.y.t.e.w.w.e.t.y.u.y.t.i.t.y.u.u.u.u.y.p.i.p.y.u.u.",
"$ $ *.a.s.s.-.-.d.f.e e e e =.g.s.h.j.;.k.l.,.z.x.s.s.s.s.h.j.;.j.c.&.-.;.:.v.v.:.;.b.-.b.5.4.n.",
"# # E m.M.N.B.[ B.V.1 1 1 1 C.M.M.M.Z.A.S.D.F.G.N.M.M.M.M.M.Z.A.N.H.~ / (  .) ) { J.G.[ K.L.O.o.",
"    P.+ I.U.y m y 3 I.Y.Y.T.T.T.T.T.I.I., R.m R., I.T.T.T.T.I.I.@ P.  J R o o o I U G m d - P O ",
". . ; 4 + E.W.d Q.!.~.> 3 2 3 > > > 3 3 ^.t x t ^.3 3 > > > > > : O   . = X X X X S Z d /.A J . ",
"X X = ; O O (.6 )._.0 X u `.u X 0 X u y t '.9 '.t y u X 0 0 0 a i J     . . . . . . 6 6 A = X X ",
"o o X .         J n o b G c G b o b G m ].9 % 9 ].c v b o o o o n .                     J X o o ",
"b b S A 6 6 . . - = X S `.G H b o b H G [.{.% {.}.d Z S X X X X = - . . . . . 6 6 6 6 6 A S b b ",
"G G G d d Z S X = - . - S b b o o o b b |.B % * 7 6 6 . . . . . - = X X X X S Z d d d d d G G G ",
"m m m m m Y b o X J P J X o o o o o I X  X'.% $ E P P O O O K K J X o o o o b G m m m m m m m m ",
"' ' ' ' ' ` { .XXXoX~ ! Q W j XX.X| { { OX+X#.@.@XO.o.o.o.O.~ ~ oXXX.X.X.X.X#X$Xh ].%X[ [ ] ' ' ",
">.>.>.>.,.<.2.h.h.&.&.%.z =.&Xs.h.2.;.:.:.*X9.*X4.n.n.n.4.5.6.&.&.h.h.h.h.h.=X-X{.-X3.-.1.<.,.>.",
"u.u.u.u.u.y.t.e.w.w.w.q.0.% 0.q.e.t.y.u.u.u.u.u.u.u.u.u.;X:Xt.w.w.w.w.w.w.w.q.0.% 0.1.e.p.y.u.u.",
"n.n.n.;.;.j.h.s.s.&.&.%.z =.&Xs.h.-.>X;.;.;.;.;.;.;.;.;.;.j.h.s.s.s.s.s.s.s.g.=.,X=.<X&.-.<.,.>.",
"o.o.1XN.A.Z.M.M.m.2X~ ! Q W j XX.X3X4XA.A.A.A.A.A.A.A.A.A.Z.M.M.M.M.M.M.M.M.M.C.1 5X2X~ 6X%X' ' ",
"O K 7X@ I.T.T.T.+ P.  J X o o o o _.8XI.I.I.I.I.I.I.I.I.I.I.T.T.T.T.T.T.T.T.T.T.T.+ 7XP - d m 9X",
"    O : > 4 + + 4 O   . = X X X X _.2 4 > 3 2 3 3 3 3 3 2 3 > > > 3 2 3 > > > 3 3 E.- 6 0XC ].h ",
"    J i a i p O O       . . . . . - _.0 X u `.`.`.`.`.`.`.u X 0 X u `.u X 0 X u `.`.d d C qX9 9 ",
"    . n o n .                     J X o b G m m m m m m c G b o b G c G b o b G m m m m ].9 % % ",
"O O ; = X = - . . . . . 6 6 6 6 6 A S b wXG m m G G G G G H b o b H G d eXb wXG m m d d C qX9 9 ",
"+ + 4 ; . - = X X X X S Z d d d d d G G G m m G wXb b b b b o o o b b eXd G G m m d 0X6 0XC ].h ",
"T.T.@ 7XP ; X o o o o b G m m m m m m m m m m Y U I I T T o o o o o I U Y m m m m d - P - rXm 9X",
"A.A.N.1Xo.6XXX.XXXj W |.[.h ].%X[ [ ] ' ' ' ' ` _ { { | .XXXj W j XX.X#XtX[ [ ] ' yXuXO.uXyX' ' ",
";.;.;.n.4.5.-.h.s.&XB B {.9 -X3.-.1.<.,.>.>.>.>.:.:.;.2.h.s.&X=.&Xs.h.iX-.-.1.<.,.>.4.n.4.>.>.>.",
"u.u.u.u.u.y.t.w.q.0.% r.% % 0.1.e.p.y.u.u.u.u.u.u.u.y.t.w.q.0.% 0.1.e.e.e.e.t.y.u.u.u.u.u.u.u.u.",
";.;.k.l.,.<.-.&.<X=.e e e e =.<X&.6.5.4.4.>.>.l.k.;.j.h.s.g.=.,Xf.d.-.-.s.s.h.5.4.n.;.;.;.;.;.;.",
"A.A.S.D.' %X6X~ 2X5X1 1 1 1 5X2X~ ~ O.O.uXyX' D.S.A.Z.M.M.M.C.1 V.B.[ B.N.M.V./ o.1XN.A.A.A.A.A.",
"I.I., Z m d 6 K P.+ @ @ Y.T.+ 7XK O O P - d m Z , I.I.T.T.T.@ T.3 y m y U.I.+ 7XK 7X@ I.I.I.I.I.",
"> ~.!.u v Z 6   O 4 + ~.3 3 E.- 6 6 . J A d m `.^.3 3 ~.+ + + + E.u v u E.+ 4 ; . ; : > > > > > ",
"0 0 R U b S .     O O pXW.`.`.d d Z S X S G m m `.`.W.pXO O O O ; o b o ; P ; = X X 0 0 0 0 0 0 ",
"o o o o o X J         6 d c m m m G b o b G m m m c d 6         . X o X .   . X o o o o o o o o ",
"o o o b b S A 6 6 . J A /.d d G G d eXb aXsX].g f d s 6     . . - S b S A 6 A S b b b b b b b b ",
"o o b H G G d d Z S X = A 6 A S b eXd G sXqX9 8 7 6 6     . = X S `.G G d d d G G G G G G G G G ",
"T I U Y m m m m G U T R ; P ; = T U G m h 9 dX$ F P     K J R T U Y m m m m m m m m m m m m m m ",
") { J.G.[ [ [ [ G.J.) ..X.o.6XXX.X#X$Xh fX9 % gXhX& # ~ ~ / ( ) J.G.[ [ ] ' ' ' ' ' ' ' ' ' ' ' ",
"v.:.;.b.-.-.-.-.b.;.:.<.4.4.5.-.h.=X-X9 9 % % % gX$ *.%.&.-.;.:.;.b.-.1.<.,.>.>.>.>.>.>.>.>.>.>.",
"jXkXlXzXi.i.i.i.zXlXkXjXkXkXlXp.i.xXcX% % % % % % % cX1.i.p.lXkXlXzXi.zXlXkXvXvXvXvXvXvXvXvXvXvX",
"vXvXbXzXi.i.i.i.zXbXvXvXvXvXbXzXi.xXcX% % % % % % % cXxXi.zXbXvXbXzXi.zXbXvXvXvXvXvXvXvXvXvXvXvX"
};
