/* XPM */
static char *result[] = {
/* columns rows colors chars-per-pixel */
"48 48 172 2 ",
"   c #745A36",
".  c #6F5734",
"X  c #514028",
"o  c #4B3C26",
"O  c #544329",
"+  c #896B3F",
"@  c #927242",
"#  c #8E6E41",
"$  c #775D37",
"%  c #6D5432",
"&  c #3F311C",
"*  c #372A17",
"=  c #43331D",
"-  c #86693D",
";  c #372A18",
":  c #725835",
">  c #614C2C",
",  c #5F4A2B",
"<  c #785D37",
"1  c #8A6C3F",
"2  c #937243",
"3  c #8E6F41",
"4  c #755B36",
"5  c #715835",
"6  c #87693E",
"7  c #937343",
"8  c #86683D",
"9  c #8B6C3F",
"0  c #775C37",
"q  c #55442A",
"w  c #8E7044",
"e  c #987849",
"r  c #917245",
"t  c #685130",
"y  c #614B2C",
"u  c #644E2D",
"i  c #755A36",
"p  c #43341E",
"a  c #8C6E42",
"s  c #514128",
"d  c #725935",
"f  c #785D38",
"g  c #8F7145",
"h  c #9A794A",
"j  c #927346",
"k  c #664F2F",
"l  c #5E492B",
"z  c #8D6F43",
"x  c #99794A",
"c  c #917345",
"v  c #664F2E",
"b  c #3F301B",
"n  c #927243",
"m  c #6F5634",
"M  c #4F3F26",
"N  c #493A24",
"B  c #524128",
"V  c #896C42",
"C  c #8B6E42",
"Z  c #654F2E",
"A  c #5E4A2B",
"S  c #6D5533",
"D  c #41321D",
"F  c #392C19",
"G  c #765C37",
"H  c #86693E",
"J  c #82653C",
"K  c #534229",
"L  c #3A2D19",
"P  c #40311C",
"I  c #66502F",
"U  c #604B2B",
"Y  c #705734",
"T  c #58462B",
"R  c #4D3E26",
"E  c #4C3D26",
"W  c #3C2F1A",
"Q  c #5A4628",
"!  c #917346",
"~  c #4B3D26",
"^  c #504028",
"/  c #3D2F1A",
"(  c #5D482A",
")  c #624C2C",
"_  c #45361F",
"`  c #896C41",
"'  c #957547",
"]  c #534228",
"[  c #4E3E26",
"{  c #493B24",
"}  c #4A3B25",
"|  c #83663C",
" . c #42331D",
".. c #6B5331",
"X. c #4F3F27",
"o. c #735936",
"O. c #795E39",
"+. c #755B37",
"@. c #624C2D",
"#. c #604B2C",
"$. c #5C482A",
"%. c #3C2F1B",
"&. c #886A3E",
"*. c #654E2E",
"=. c #917142",
"-. c #87693D",
";. c #6D5532",
":. c #8B6D3F",
">. c #45351E",
",. c #795E38",
"<. c #3C2E1A",
"1. c #6C5433",
"2. c #735A36",
"3. c #8D6E40",
"4. c #927142",
"5. c #67502F",
"6. c #896B3E",
"7. c #715834",
"8. c #5D492A",
"9. c #5A4629",
"0. c #6E5533",
"q. c #634D2D",
"w. c #644E2E",
"e. c #997949",
"r. c #554329",
"t. c #85683D",
"y. c #57452B",
"u. c #56442A",
"i. c #4B3C25",
"p. c #56452A",
"a. c #524228",
"s. c #59472C",
"d. c #8F7144",
"f. c #55432A",
"g. c #5D492B",
"h. c #7A5F39",
"j. c #695131",
"k. c #7B6039",
"l. c #8B6C40",
"z. c #3B2E1A",
"x. c #907245",
"c. c #3A2D1A",
"v. c #947547",
"b. c #8C6D40",
"n. c #3D2F1B",
"m. c #947447",
"M. c #785E38",
"N. c #82653B",
"B. c #84673C",
"V. c #6B5332",
"C. c #6C5432",
"Z. c #483820",
"A. c #362A17",
"S. c #937446",
"D. c #6C5332",
"F. c #45351F",
"G. c #3E301B",
"H. c #765B37",
"J. c #907145",
"K. c #8C6E43",
"L. c #937447",
"P. c #8B6E43",
"I. c #8F6F41",
"U. c #997849",
"Y. c #44351E",
"T. c #745B37",
"R. c #54432A",
"E. c #977748",
"W. c #6B5432",
"Q. c #735935",
"!. c #4D3D26",
"~. c white",
/* pixels */
"    . X o O + @ # $         % & * = - @ # $         % & ; & %   $ # @ + O o O + @ # $   : > , , ",
"    . X o O + @ # <         % & * = - @ # <         % & ; & %   $ # @ + O o O + @ # $   : > , , ",
"    . X o O 1 2 3 4 5 :     % & * = 6 7 3 4 5 :     % & ; & %   $ # @ + O o O 8 3 9 0   : > , , ",
"    . X o q w e r t y u : i % & * p a e r t y u : i % & ; & %   $ # @ + O o s d f 0     : > , , ",
"    . s o q g h j k l > 5 i % & * p z x c v l > 5 i % b * b %   < 3 n + O o X m         : > , , ",
"    m M N B V j C Z A > : i % & * p z x c k A > : i S D F D S   G H + J K o X .         : > , , ",
"    S D L P y I Z U , > : i % & * p z x c k A > :   m M N M m i Y T O K R E X .         : > , , ",
"    % b ; W Q , A , , > : i % b * p z x ! k A > :   . X ~ X . i . ^ ~ E E E X .         5 > , , ",
"$ f Y P ; / ( ) > , , > : i S D F _ ` ' z Z A > :   Y ] [ ] Y i m M { } E E X .     0 f 4 ) , , ",
"# 3 |  .* b ..d m > , > :   m M N X.o.O.+.@., > :   5 #.$.#.5 i S D L %.} E X .   0 9 3 &.*., , ",
"=.@ -. .* b ;.4 : ) , > :   . s E s m   5 > , > 5   5 ) , ) : i % b * L { E X .   f # @ :.Z A , ",
"=.@ -.>.F D S i : > , > :   m M N M m   : > , @.+.,.+.@., > : i S p <.& [ X O 1.. 2.3.4.:.5.> > ",
"=.4.6.B N M m   : > , > : i S D F D S i : > A Z z ' z Z A > :   7.8.9.( S Y 1.O ^ T + @ 3.4 5 : ",
"=.4.+ O o X Y 4 : > , > 5   % b * b % i : ) , I ! x ! k A > 5   5 ) , ) : 4 . X o O + @ # f     ",
"=.=.+ T ^ O 1.Y 0.q.> w.4 f Y  .F D S i 5 #.$.w.r e.c k l ) 4 f   #.$.#.5   . X o O + @ # $     ",
"=.=.3.2.. 1.O ^ r.0.: 4 1 3 t.B N M m i Y ] R y.g e.c k l *.&.3 - u.R ] Y i . X o O + @ # $     ",
"=.4.3 f   . X o ^ .   f # @ + O o X . 4 . ^ i.q g x c v l Z :.@ + O i.^ . i . X o O + @ # $     ",
"9 :.&.0   . X ~ X .   $ # @ + p.R a.S : 0.r.^ s.d.e r t y 5.:.@ + T ^ f.Y i . X o O + @ # $     ",
"Z Z 5.d   . X ~ X .   $ # 4.9 q.$.g.y > q.0.m 2.3 n 3 4 7.4 3.4.3.2.m Y 2.  . X o O + @ # $     ",
", A > 5   . s E s .   $ # 4.9 Z , , , , > :   < # 4.# f   f # =.# f         . X o O + @ # $     ",
", , > :   m M N M m   $ # 4.:.5.> > , , ) 4 $ h.9 3 9 0   $ # =.3.4 5 :     Y ] R p.+ @ # $     ",
", , > : i S D F D S   $ # =.3.4 5 m > A *.&.3 9 h.$ 0     $ # 4.:.5.> u :   5 #.$.q.9 4.# $     ",
", , > : 4 S b * b %   $ # @ # f   : ) A Z :.@ # $         f # 4.9 Z l > 5   5 ) , Z 9 4.# $     ",
"> > q.0.Y j.b ; P 7.,.k.l.3 9 0   : > A Z 9 4.# $     : 5 4 3.4.9 Z A ) 4 f 4 ) A Z 9 4.# $     ",
": : 0.r.X [ z.; p ` ' x.k.$ 0     : > A Z 9 4.# $   : u > 5.:.@ 9 Z l *.&.3 &.*.l Z 9 4.# $     ",
"    . ^ o N c.* p z x v.f 2.      : > A Z :.@ # $   5 > l Z 9 @ 9 Z l Z :.@ :.Z l Z b.n 3 <     ",
"    Y f.X [ n.F _ z x m.M.        : > A *.&.3 9 0   : > A Z 9 @ 9 q.$.q.9 @ :.5.y v N.-.B.G     ",
"    2.Y Y V.[ N K g e.m.M.        : > , ) 4 f 0     : > A Z 9 @ + p.R p.+ @ 3.4 : C.Z. .Z.0.    ",
"        i Y X o q g e.m.M.        : > , > :         : > A Z :.@ + O o O + @ # f   % b A.b %     ",
"          Y f.^ s.d.e S.f     : : Y q.> q.D.% 0.o.  : > A *.&.3 8 O o O + @ # $   % & ; & %     ",
"          2.Y m 2.3 n 3 f   : u > q.Y d D.F.G.F.0.i : > , ) 4 f d s o O + @ # $   % & ; & %     ",
"                f # =.# $   5 > , > : 4 % b * b %   5 > , > 5   m s ~ O + @ # $   % b * b %     ",
"    2.Y . Y 2.  $ # =.# $   : > , > : i % & ; P 7.O.H.w.> u :   m M N B + 2 3 f   S D F D S     ",
"    Y f.^ f.Y   $ # =.# $   : > , > : i % & * p ` ' J.H.5 :     S D F _ K.e S.f   m M N M m     ",
"    m ^ o ^ .   $ # @ # $   5 > , > 5   % & * p z x v.,.        % b * p z x v.M.  . X ~ X .     ",
"M.,.2.s ~ X .   0 9 3 9 h.$ 4 ) , ) 4 f Y P * p z x L.G 5 :     % & * p ` ' J.f   Y ] [ ] Y     ",
"m.v.P.q o X .     0 $ h.9 3 &.*.l *.&.I.|  .* p z x j t y u : i % & ; P 7.O.f i   5 #.$.#.5     ",
"e e.g q i.X . i       $ # @ :.Z l Z :.2 -. .A.p z x c v l > 5 i % b * b %         : > , > :     ",
"e U.J.s.^ O 1.. Y 2.  $ # 4.:.5.y 5.&.I.B.Y.F _ K.e x.v A > : i S D F D S         : u > u :     ",
"e e L.T.m 1.O ^ f.Y   $ # =.3.4 5 d 0 f d X.N B + 7 b.Z A > :   m M N M m           : 5 :       ",
"e e v.,.  . X o ^ m   $ # @ # f         m s ~ R.+ @ 9 Z , ) :   . s E s Y i                     ",
"E.E.S.f   . X ~ s d < h.9 3 9 0     0 f d X.N B t.3 &.q.$.#.5   . X ~ ^ W.. Y G < 0             ",
"n n 3 f   . X o O 8 3 9 h.$ 0     0 9 3 B.Y.F  .Y f Q.K [ ] Y i . X E !.^ ^ T H 3 9 0           ",
"=.=.# $   . X o O + @ # <         $ # n -. .* b % i m X o X . i . ^ ~ E E o O + @ # $           ",
"=.=.# $   . X o O + @ 3.2.m Y 2.  $ # @ -.>.F D S 4 . X ~ X . i Y f.X ^ !.~ O + @ # $     : 5 : ",
"=.=.# $   . X o O + @ + T ^ f.Y   $ # @ 6.B N M m i . X ~ X .   2.Y . W.^ o O + @ # $   : u > > ",
"=.=.# $   . X o O + @ + O o ^ .   $ # @ + O ~ s . i . X ~ X .       i Y X o O + @ # $   5 > , , ",
"=.=.# $   . X o O + @ + O o X .   $ # @ + O o X . i . X ~ X .         . X o O + @ # $   : > , , "
};
